# xmcd
#
# Track frame offsets:
# 150
# 18463
# 29798
# 44532
# 56965
#
# Disc length: 968 seconds
#
#
# Revision: 0
# Processed by: cddbd v1.5.2PL0 Copyright (c) Steve Scherf et al.
# Submitted via: FreeRIP 2.96 
#
DISCID=4703c605
DTITLE=Vitor and Leo - Ao Vivo Em Uberlândia
DYEAR=2005
DGENRE=Sertanejo
TTITLE0=Fada
TTITLE1=Chuva de Bruxaria
TTITLE2=Jogo da Vida
TTITLE3=O Cuidador de Fogo
TTITLE4=Amigo Apaixonado
EXTD=Ano 2005
EXTT0=
EXTT1=
EXTT2=
EXTT3=
EXTT4=
PLAYORDER=
